<svg width="136" height="95" viewBox="0 0 136 95" fill="none" xmlns="http://www.w3.org/2000/svg">
<path d="M117.23 49.04C117.2 49.02 117.23 49.04 116.56 48.77C116.25 48.65 116.14 48.63 116.07 48.69C115.87 48.88 116.25 50.45 118.36 55.7C118.41 55.78 118.45 55.84 118.49 55.88C118.59 56 118.6 56.03 118.6 56.04C118.58 56.14 112 55.34 105 54.77V58.08C111 59.79 119.04 62.07 129.57 64.93C129.91 65.05 130.04 65.01 130.08 64.96C130.51 64.35 122.49 57.61 123.29 57.5C123.77 57.44 123.3 57.5 123.78 57.44C127.11 56.68 130.61 56.15 134.3 55.78C134.7 55.74 135.09 55.7 135.49 55.67C135.9 55.59 135.96 55.5 135.96 55.44C136.06 54.39 118.06 49.69 117.23 49.04Z" 
fill="#041622"/>
<path d="M117.67 32.02C117.67 32.03 117.64 32.07 117.57 32.21C117.54 32.26 117.52 32.33 117.49 32.41C116.37 37.97 116.29 39.59 116.52 39.74C116.6 39.79 116.71 39.75 116.99 39.57C117.6 39.18 117.57 39.21 117.6 39.18C118.3 38.38 135.12 30.25 134.82 29.24C134.8 29.19 134.73 29.11 134.32 29.11C133.93 29.15 133.53 29.2 133.13 29.24C129.44 29.6 125.92 29.75 122.5 29.66C122.02 29.69 122.5 29.66 122.02 29.69C121.22 29.74 127.88 21.56 127.35 21.04C127.31 21 127.14 20.98 126.83 21.16C117.63 25.7 110 29.35 105 32.11V35.78C111 33.94 117.63 31.93 117.67 32.02Z" 
fill="#041622"/>
<path d="M105.14 14.84C105.14 14.84 105.08 14.87 105.04 14.95C105.04 14.96 105 14.97 105 14.98V18.96C105 18.95 105.06 18.95 105.07 18.95C105.47 18.49 115.13 13.84 114.96 13.26C114.95 13.23 114.92 13.18 114.68 13.18C114.45 13.2 114.23 13.23 114.01 13.25C111.9 13.46 109.88 13.54 107.93 13.49C107.65 13.51 107.93 13.49 107.65 13.51C107.19 13.54 111.01 8.85004 110.7 8.56004C110.68 8.54004 110.56 8.53004 110.38 8.63004C108.45 9.58004 107 10.46 105 11.28V14.87C105 14.84 105.14 14.83 105.14 14.84Z" 
fill="#041622"/>
<path d="M115.86 80.98C116.05 81.07 116.14 81.06 116.16 81.03C116.44 80.71 112.3 76.34 112.76 76.33C113.04 76.32 112.77 76.33 113.04 76.32C114.98 76.11 117.01 76.04 119.13 76.08C119.36 76.08 119.59 76.09 119.81 76.1C120.05 76.08 120.09 76.03 120.09 76C120.22 75.41 110.26 71.53 109.83 71.11C109.81 71.09 109.83 71.11 109.46 70.91C109.29 70.82 109.23 70.8 109.19 70.83C109.06 70.93 109.18 71.84 110.06 74.97C110.08 75.02 110.1 75.05 110.12 75.08C110.17 75.15 110.15 75.18 110.15 75.18C110.14 75.22 107.98 74.69 104.98 74.09V76.59C108 77.79 111.54 79.25 115.86 80.98Z" 
fill="#041622"/>
<path d="M68.4 42.59C66.65 41.67 64.69 41.46 62.51 41.97C60.43 42.46 58.81 43.47 57.66 45.02C56.51 46.56 56.03 48.49 56.21 50.8L71.77 47.17C71.27 45.04 70.15 43.51 68.4 42.59Z" 
fill="#041622"/>
<path d="M104.72 19.16C104.56 19.26 104.52 19.29 104.48 19.26C104.35 19.17 104.36 18.25 105 15.06C105.01 15.02 105 15 105 14.97V14.85C104 15.07 95.38 17.91 91.89 18.52C91.76 18.54 91.61 18.56 91.59 18.51C91.46 18.22 96 15.8 105 11.26V2.13002C105 1.11002 104.19 0.330027 103.23 0.470027L1.48999 16.15C0.70999 16.27 0 16.98 0 17.81V79.78C0 80.61 0.739989 81.32 1.51999 81.44L103.16 94.42C104.12 94.56 105 93.78 105 92.76V76.59C99 74.17 96.33 72.83 96.41 72.59C96.43 72.54 96.52 72.55 96.65 72.56C98.56 72.74 102 73.45 105 74.09V58.07C98 55.93 94.16 54.67 94.24 54.32C94.26 54.22 94.45 54.22 94.68 54.21C97.11 54.16 101 54.42 105 54.76V35.76C101 36.92 97.02 38.01 94.54 38.45C94.32 38.49 94.08 38.53 94.04 38.43C93.89 38.08 98 35.96 105 32.09V18.95C105 18.96 104.97 19 104.72 19.16ZM46.94 30.1L58.3 12.03C58.35 11.95 58.46 11.94 58.52 12L73.36 25C73.61 25.22 74.45 26.65 73.53 26.6C72.16 26.52 70.75 26.21 69.46 25.76C69.45 25.76 69.44 25.75 69.43 25.75L60.91 20.8C60.85 20.77 60.61 20.94 60.56 20.99L55.92 25.65L55.91 25.66C54.62 26.7 53.19 27.58 51.68 28.27L47.13 30.33C47 30.37 46.86 30.22 46.94 30.1ZM84.06 63.24C82.79 65.79 80.96 67.98 78.58 69.81C76.2 71.64 73.36 72.94 70.06 73.71C66.08 74.64 62.35 74.62 58.85 73.64C55.35 72.67 52.36 70.81 49.88 68.07C49.8 67.98 49.73 67.88 49.65 67.79L51.74 73.25H41.91L39.19 65.49H21.44L18.72 73.25H8.89001L27.41 24.81H33.21L44.11 53.31L43.99 53.01C43.84 50.54 44.07 48.19 44.69 45.98C45.68 42.43 47.52 39.44 50.23 37.02C52.94 34.6 56.3 32.92 60.32 31.98C64.25 31.06 67.93 31.07 71.37 32.01C74.81 32.95 77.74 34.74 80.18 37.39C82.61 40.04 84.31 43.4 85.25 47.48C85.52 48.64 85.73 49.87 85.88 51.17L57.74 57.73C58.52 60.2 59.78 61.94 61.52 62.94C63.26 63.94 65.17 64.2 67.26 63.71C70.36 62.99 72.21 61.18 72.81 58.28L86.04 55.19C86 58.01 85.33 60.69 84.06 63.24Z" 
fill="#041622"/>
<path d="M30.32 40.48L24.53 57H36.11L30.32 40.48Z" 
fill="#041622"/>
</svg>
