<?xml version="1.0" encoding="utf-8"?>
<!-- Generator: Adobe Illustrator 23.0.2, SVG Export Plug-In . SVG Version: 6.00 Build 0)  -->
<svg version="1.1" id="Layer_1" xmlns="http://www.w3.org/2000/svg" xmlns:xlink="http://www.w3.org/1999/xlink" x="0px" y="0px"
	 viewBox="0 0 640 480" style="enable-background:new 0 0 640 480;" xml:space="preserve">
<style type="text/css">
	.st0{display:none;fill:#EFE0BD;stroke:#FFFFFF;stroke-width:1.3902;}
	.st1{display:none;}
	.st2{display:inline;}
	.st3{fill:none;stroke:#000000;stroke-width:1.1591;}
	.st4{fill:none;stroke:#000000;stroke-width:1.1552;}
	.st5{fill:none;}
	.st6{fill:#FFFFFF;}
	.st7{display:inline;fill:none;stroke:#FFFFFF;stroke-width:1.1591;}
	.st8{fill:none;stroke:#FFFFFF;stroke-width:1.1552;}
	.st9{display:inline;fill:#FFFFFF;}
	.st10{fill:#07BEDA;}
	.st11{fill:#F23545;}
</style>
<rect x="36.5" y="54" class="st0" width="576" height="373"/>
<g class="st1">
	<g class="st2">
		<path class="st3" d="M117,90c-2.93,1.62-5.16,3.96-6.69,7.03c-1.54,3.07-2.31,6.78-2.31,11.12v15.12c0,4.35,0.77,8.05,2.31,11.12
			c1.54,3.07,3.77,5.41,6.69,7.01c0.03,0.02,0.06,0.03,0.09,0.05c2.82,1.55,5.98,2.36,9.18,2.36l1.3,0.02
			c3.4-0.1,6.41-0.77,9.08-2.26c2.67-1.49,4.87-3.66,6.62-6.5c1.75-2.84,2.97-6.27,3.66-10.29h-10.56c-0.37,1.84-0.97,3.41-1.79,4.7
			c-0.82,1.29-1.82,2.27-3.01,2.94c-1.19,0.67-2.53,1-4.02,1c-1.91,0-3.53-0.4-4.87-1.19c-1.34-0.8-2.36-1.95-3.07-3.47
			c-0.71-1.52-1.06-3.35-1.06-5.5"/>
		<g>
			<path class="st4" d="M180.5,124.06c0,1.92-3.19,3.29-3.94,4.76c-0.75,1.47-1.81,2.6-3.19,3.4c-1.38,0.8-2.97,1.2-4.79,1.2
				s-3.42-0.4-4.79-1.2c-1.38-0.8-2.44-1.93-3.19-3.4c-0.75-1.47-3.08-3.09-3.08-5.01l0.8-33.81c-2.96,1.68-5.25,4.06-6.88,7.14
				c-1.62,3.08-2.43,6.64-2.43,10.69v15.64c0,4.05,0.81,7.61,2.43,10.69c1.62,3.08,3.91,5.46,6.88,7.14
				c2.96,1.68,6.39,2.53,10.27,2.53c3.88,0,7.31-0.84,10.27-2.53c2.96-1.68,5.25-4.06,6.88-7.14c1.62-3.08,2.43-6.64,2.43-10.69
				v-15.64c0-4.05-0.81-7.61-2.43-10.69c-1.62-3.08-3.92-5.46-6.88-7.14L180.5,124.06z"/>
		</g>
		<g>
			<path d="M240.13,89.04v53.04h-7.1l1.14-41.04l-2.3-0.39l-11.13,35.26h-7.5l-11.13-34.27l-2.29,0.4l1.15,40.04h-7.1V89.04h11.7
				l10.28,33.92l1.12,3.71l1.13-3.71l10.31-33.93H240.13 M241.31,87.86h-13.75l-10.57,34.76l-10.54-34.76H192.7v55.39h9.48L201,102
				l11.4,35.08h9.22L233,101l-1.17,42.25h9.49V87.86L241.31,87.86z"/>
		</g>
		<g>
			<path d="M284.78,89.04v34.18c0,4.13-0.76,7.7-2.25,10.6c-1.47,2.85-3.63,5.06-6.44,6.55c-2.85,1.51-6.35,2.28-10.4,2.28
				c-4.05,0-7.55-0.77-10.38-2.28c-2.79-1.49-4.95-3.69-6.4-6.55c-1.48-2.9-2.23-6.47-2.23-10.61V89.04h8.09v34.44
				c0,3.48,0.97,6.24,2.88,8.21c1.92,1.98,4.63,2.98,8.04,2.98c3.44,0,6.16-1,8.1-2.98c1.93-1.97,2.91-4.73,2.91-8.21V89.04H284.78
				 M285.95,87.86h-10.44v35.62c0,3.17-0.86,5.64-2.57,7.39c-1.71,1.75-4.13,2.63-7.26,2.63c-3.1,0-5.5-0.88-7.2-2.63
				c-1.7-1.75-2.55-4.22-2.55-7.39V87.86H245.5v35.35c0,4.34,0.79,8.06,2.36,11.14c1.57,3.09,3.87,5.44,6.89,7.05
				c3.02,1.61,6.67,2.42,10.93,2.42c4.27,0,7.92-0.81,10.95-2.42c3.03-1.61,5.35-3.96,6.93-7.05c1.59-3.08,2.38-6.8,2.38-11.14
				V87.86L285.95,87.86z"/>
		</g>
		<g>
			<path d="M331.4,89.04v53h-10.93L300.2,100.8l-2.19,0.82l0.93,3.47v36.94h-7.63v-53h10.85l19.37,39.89l2.23-0.51V89.04H331.4
				 M332.57,87.86h-9.98v40.55L302.9,87.86h-12.76v55.35h9.98v-38.27l-0.97-3.62l20.59,41.89h12.84V87.86L332.57,87.86z"/>
		</g>
		<g>
			<path d="M346.1,89.04v53.04h-8.47V89.04H346.1 M347.28,87.86h-10.82v55.39h10.82V87.86L347.28,87.86z"/>
		</g>
		<g>
			<path d="M390.52,89.04l-15.11,21.01l-0.44,0.62l0.38,0.66l17.75,30.75h-9.66l-12.87-22.44l-0.91-1.58l-1.07,1.48l-7.94,11.04
				l-0.22,0.31v0.38v10.82h-8.09V89.04h8.09v26.26v3.93l2.16-3.28l17.71-26.91H390.52 M392.81,87.86h-13.14l-18.06,27.44V87.86
				h-10.44v55.39h10.44v-12l7.94-11.04l13.21,23.03h12.38l-18.77-32.51L392.81,87.86L392.81,87.86z"/>
		</g>
	</g>
	<g class="st2">
		<path d="M134.29,121.53c-0.84,1.3-1.87,2.28-3.09,2.95c-1.22,0.67-2.59,1.01-4.11,1.01c-1.95,0-3.62-0.4-4.99-1.2
			c-1.37-0.8-2.42-1.96-3.14-3.49c-0.72-1.52-1.08-3.37-1.08-5.52v-15.2c0-2.16,0.36-4.01,1.08-5.54c0.72-1.54,1.77-2.7,3.14-3.5
			c1.37-0.8,3.03-1.2,4.99-1.2c1.5,0,2.85,0.34,4.06,1.03c1.21,0.69,2.23,1.68,3.09,2.97c0.85,1.3,1.48,2.86,1.89,4.69h10.82
			c-0.69-4.04-1.92-7.49-3.71-10.34c-1.79-2.86-4.06-5.03-6.8-6.53c-2.74-1.5-5.85-2.25-9.33-2.25c-4.22,0-7.82,0.81-10.82,2.44
			c-3,1.63-5.28,3.98-6.86,7.07c-1.57,3.09-2.36,6.81-2.36,11.18v15.2c0,4.37,0.79,8.1,2.36,11.18c1.57,3.09,3.86,5.44,6.86,7.05
			c0.03,0.02,0.06,0.03,0.09,0.05c2.89,1.56,6.12,2.37,9.41,2.37l1.34,0.02c3.48-0.1,6.57-0.77,9.3-2.27
			c2.73-1.5,4.99-3.68,6.78-6.53c1.79-2.86,3.04-6.3,3.75-10.34h-10.82C135.74,118.67,135.13,120.24,134.29,121.53z"/>
		<g>
			<path d="M186.65,89.1c-1.68-3.09-4.04-5.47-7.1-7.16c-3.06-1.69-6.6-2.53-10.61-2.53c-4.01,0-7.55,0.84-10.61,2.53
				c-3.06,1.69-5.43,4.08-7.1,7.16c-1.68,3.09-2.51,6.66-2.51,10.72v15.7c0,4.06,0.84,7.64,2.51,10.72c1.68,3.08,4.04,5.47,7.1,7.16
				c3.06,1.69,6.6,2.53,10.61,2.53c4.01,0,7.55-0.84,10.61-2.53c3.06-1.69,5.43-4.08,7.1-7.16c1.68-3.09,2.51-6.66,2.51-10.72v-15.7
				C189.16,95.76,188.32,92.18,186.65,89.1z M178.34,115.78c0,1.93-0.39,3.63-1.16,5.11c-0.78,1.47-1.87,2.61-3.3,3.41
				c-1.42,0.8-3.07,1.2-4.95,1.2c-1.88,0-3.53-0.4-4.95-1.2c-1.42-0.8-2.52-1.94-3.3-3.41c-0.77-1.47-1.16-3.17-1.16-5.11V99.55
				c0-1.93,0.39-3.63,1.16-5.1c0.78-1.47,1.87-2.61,3.3-3.41c1.42-0.8,3.07-1.2,4.95-1.2c1.88,0,3.53,0.4,4.95,1.2
				c1.42,0.8,2.52,1.94,3.3,3.41c0.77,1.47,1.16,3.17,1.16,5.1V115.78z"/>
		</g>
		<polygon points="227.56,79.97 217.01,117.31 206.46,79.97 192.7,79.97 192.7,135.36 202.19,135.36 202.19,96.76 212.4,129.19 
			221.62,129.19 231.83,96.03 231.83,135.36 241.31,135.36 241.31,79.97 		"/>
		<path d="M275.52,79.97v35.62c0,3.17-0.86,5.64-2.57,7.39c-1.71,1.75-4.13,2.63-7.26,2.63c-3.1,0-5.5-0.88-7.2-2.63
			c-1.7-1.75-2.55-4.22-2.55-7.39V79.97H245.5v35.35c0,4.34,0.79,8.06,2.36,11.14c1.57,3.09,3.87,5.44,6.89,7.05
			c3.02,1.61,6.67,2.42,10.93,2.42c4.27,0,7.92-0.81,10.95-2.42c3.03-1.61,5.35-3.96,6.93-7.05c1.59-3.08,2.38-6.8,2.38-11.14V79.97
			H275.52z"/>
		<polygon points="322.59,79.97 322.59,120.53 302.9,79.97 290.14,79.97 290.14,135.32 300.12,135.32 300.12,95.4 319.73,135.32 
			332.57,135.32 332.57,79.97 		"/>
		<rect x="336.46" y="79.97" width="10.82" height="55.39"/>
		<polygon points="382.75,135.36 395.13,135.36 376.36,102.85 392.81,79.97 379.67,79.97 361.61,107.41 361.61,79.97 351.17,79.97 
			351.17,135.36 361.61,135.36 361.61,123.37 369.55,112.33 		"/>
	</g>
	<g class="st2">
		<g>
			<path class="st5" d="M488.62,81.52c0.02,0.05,0.12,0.03,0.25,0.01c3.49-0.61,12.14-3.45,13.14-3.67v-3.59
				C493,78.8,488.49,81.22,488.62,81.52z"/>
			<path class="st5" d="M502.01,78.06c-0.64,3.19-0.66,4.11-0.53,4.2c0.04,0.03,0.07,0,0.23-0.1c0.25-0.16,0.29-0.2,0.29-0.21v-3.98
				C502,78,502.03,78.02,502.01,78.06z"/>
			<path class="st5" d="M502.19,77.84c0,0-0.03,0-0.08,0.01v0.12c0-0.01,0.01-0.02,0.01-0.03C502.16,77.87,502.2,77.84,502.19,77.84
				z"/>
			<path class="st5" d="M491.06,101.45c0.04,0.09,0.23,0.05,0.45,0.02c2.49-0.44,6.49-1.53,10.49-2.69v-3.67
				C495,98.98,490.91,101.09,491.06,101.45z"/>
			<path class="st5" d="M493.41,135.6c-0.08,0.24,2.59,1.57,8.59,4v-2.5c-3-0.64-6.44-1.35-8.35-1.53
				C493.52,135.55,493.42,135.54,493.41,135.6z"/>
			<path class="st5" d="M491.7,117.22c-0.22,0-0.47,0.01-0.49,0.11c-0.08,0.36,3.79,1.61,10.79,3.75v-3.31
				C498,117.43,494.13,117.17,491.7,117.22z"/>
			<path d="M514.23,112.04c-0.03-0.02,0,0-0.67-0.27c-0.31-0.12-0.42-0.14-0.49-0.08c-0.2,0.19,0.18,1.76,2.29,7.01
				c0.05,0.08,0.09,0.14,0.13,0.18c0.1,0.12,0.11,0.15,0.11,0.16c-0.02,0.1-6.6-0.7-13.6-1.27v3.31c6,1.71,14.04,3.99,24.57,6.85
				c0.34,0.12,0.47,0.08,0.51,0.03c0.43-0.61-7.59-7.35-6.79-7.46c0.48-0.06,0.01,0,0.49-0.06c3.33-0.76,6.83-1.29,10.52-1.66
				c0.4-0.04,0.79-0.08,1.19-0.11c0.41-0.08,0.47-0.17,0.47-0.23C533.06,117.39,515.06,112.69,514.23,112.04z"/>
			<path d="M514.67,95.02c0,0.01-0.03,0.05-0.1,0.19c-0.03,0.05-0.05,0.12-0.08,0.2c-1.12,5.56-1.2,7.18-0.97,7.33
				c0.08,0.05,0.19,0.01,0.47-0.17c0.61-0.39,0.58-0.36,0.61-0.39c0.7-0.8,17.52-8.93,17.22-9.94c-0.02-0.05-0.09-0.13-0.5-0.13
				c-0.39,0.04-0.79,0.09-1.19,0.13c-3.69,0.36-7.21,0.51-10.63,0.42c-0.48,0.03,0,0-0.48,0.03c-0.8,0.05,5.86-8.13,5.33-8.65
				c-0.04-0.04-0.21-0.06-0.52,0.12C514.63,88.7,507,92.35,502,95.11v3.67C508,96.94,514.63,94.93,514.67,95.02z"/>
			<path d="M502.14,77.84c0,0-0.06,0.03-0.1,0.11c0,0.01-0.04,0.02-0.04,0.03v3.98c0-0.01,0.06-0.01,0.07-0.01
				c0.4-0.46,10.06-5.11,9.89-5.69c-0.01-0.03-0.04-0.08-0.28-0.08c-0.23,0.02-0.45,0.05-0.67,0.07c-2.11,0.21-4.13,0.29-6.08,0.24
				c-0.28,0.02,0,0-0.28,0.02c-0.46,0.03,3.36-4.66,3.05-4.95c-0.02-0.02-0.14-0.03-0.32,0.07c-1.93,0.95-3.38,1.83-5.38,2.65v3.59
				C502,77.84,502.14,77.83,502.14,77.84z"/>
			<path d="M512.86,143.98c0.19,0.09,0.28,0.08,0.3,0.05c0.28-0.32-3.86-4.69-3.4-4.7c0.28-0.01,0.01,0,0.28-0.01
				c1.94-0.21,3.97-0.28,6.09-0.24c0.23,0,0.46,0.01,0.68,0.02c0.24-0.02,0.28-0.07,0.28-0.1c0.13-0.59-9.83-4.47-10.26-4.89
				c-0.02-0.02,0,0-0.37-0.2c-0.17-0.09-0.23-0.11-0.27-0.08c-0.13,0.1-0.01,1.01,0.87,4.14c0.02,0.05,0.04,0.08,0.06,0.11
				c0.05,0.07,0.03,0.1,0.03,0.1c-0.01,0.04-2.17-0.49-5.17-1.09v2.5C505,140.79,508.54,142.25,512.86,143.98z"/>
		</g>
		<g>
			<polygon class="st5" points="430.22,87.81 424.42,87.81 405.9,136.24 415.72,136.24 418.44,128.48 436.19,128.48 438.91,136.24 
				448.74,136.24 446.65,130.79 441.11,116.31 			"/>
			<path class="st5" d="M444.13,93.31l4.55-2.06c1.51-0.69,2.94-1.56,4.23-2.61c0,0,0.01-0.01,0.01-0.01l4.64-4.66
				c0.05-0.05,0.29-0.23,0.35-0.19l8.52,4.95c0.01,0,0.02,0.01,0.03,0.01c1.29,0.45,2.71,0.76,4.07,0.84
				c0.91,0.05,0.07-1.38-0.17-1.6l-14.84-13c-0.07-0.06-0.18-0.04-0.22,0.03L443.94,93.1C443.86,93.22,444,93.37,444.13,93.31z"/>
			<path class="st5" d="M464.27,126.71c-2.09,0.49-4,0.23-5.74-0.77c-1.74-1-3-2.74-3.78-5.21l28.14-6.56
				c-0.15-1.29-0.36-2.52-0.63-3.69c-0.95-4.07-2.64-7.43-5.07-10.09c-2.43-2.65-5.37-4.45-8.81-5.38
				c-3.44-0.94-7.12-0.95-11.05-0.03c-4.02,0.94-7.39,2.62-10.09,5.04c-2.71,2.42-4.55,5.41-5.54,8.96
				c-0.62,2.22-0.85,4.56-0.7,7.03l0.12,0.3l5.54,14.48c0.08,0.09,0.15,0.19,0.23,0.28c2.48,2.74,5.47,4.6,8.97,5.57
				c3.5,0.97,7.23,1,11.21,0.07c3.29-0.77,6.13-2.07,8.52-3.9c2.38-1.83,4.21-4.02,5.48-6.57c1.27-2.54,1.94-5.23,1.99-8.05
				l-13.23,3.09C469.22,124.17,467.37,125.98,464.27,126.71z M454.66,108.02c1.15-1.54,2.76-2.56,4.85-3.05
				c2.18-0.51,4.15-0.3,5.89,0.62c1.75,0.92,2.87,2.45,3.37,4.58l-15.56,3.63C453.03,111.49,453.51,109.56,454.66,108.02z"/>
			<path d="M465.4,105.59c-1.75-0.92-3.71-1.13-5.89-0.62c-2.08,0.49-3.7,1.5-4.85,3.05c-1.15,1.54-1.63,3.47-1.45,5.78l15.56-3.63
				C468.27,108.04,467.15,106.51,465.4,105.59z"/>
			<path d="M501.72,82.16c-0.16,0.1-0.2,0.13-0.24,0.1c-0.13-0.09-0.12-1.01,0.52-4.2c0.01-0.04,0-0.06,0-0.09v-0.12
				c-1,0.22-9.62,3.06-13.11,3.67c-0.13,0.02-0.28,0.04-0.3-0.01c-0.13-0.29,4.41-2.71,13.41-7.25v-9.13c0-1.02-0.81-1.8-1.77-1.66
				L398.49,79.15c-0.78,0.12-1.49,0.83-1.49,1.66v61.97c0,0.83,0.74,1.54,1.52,1.66l101.64,12.98c0.96,0.14,1.84-0.64,1.84-1.66
				v-16.17c-6-2.42-8.67-3.76-8.59-4c0.02-0.05,0.11-0.04,0.24-0.03c1.91,0.18,5.35,0.89,8.35,1.53v-16.02
				c-7-2.14-10.84-3.4-10.76-3.75c0.02-0.1,0.21-0.1,0.44-0.11c2.43-0.05,6.32,0.21,10.32,0.55v-19c-4,1.16-7.98,2.25-10.46,2.69
				c-0.22,0.04-0.46,0.08-0.5-0.02c-0.15-0.35,3.96-2.47,10.96-6.34V81.95C502,81.96,501.97,82,501.72,82.16z M443.94,93.1
				l11.36-18.07c0.05-0.08,0.16-0.09,0.22-0.03l14.84,13c0.25,0.22,1.09,1.65,0.17,1.6c-1.37-0.08-2.78-0.39-4.07-0.84
				c-0.01,0-0.02-0.01-0.03-0.01l-8.52-4.95c-0.06-0.03-0.3,0.14-0.35,0.19l-4.64,4.66c0,0-0.01,0.01-0.01,0.01
				c-1.29,1.04-2.72,1.92-4.23,2.61l-4.55,2.06C444,93.37,443.86,93.22,443.94,93.1z M481.06,126.24c-1.27,2.55-3.1,4.74-5.48,6.57
				c-2.38,1.83-5.22,3.13-8.52,3.9c-3.98,0.93-7.71,0.91-11.21-0.07c-3.5-0.97-6.49-2.83-8.97-5.57c-0.08-0.09-0.15-0.19-0.23-0.28
				l2.09,5.46h-9.83l-2.72-7.76h-17.75l-2.72,7.76h-9.83l18.52-48.44h5.8l10.9,28.5l-0.12-0.3c-0.15-2.47,0.08-4.82,0.7-7.03
				c0.99-3.55,2.83-6.54,5.54-8.96c2.71-2.42,6.07-4.1,10.09-5.04c3.93-0.92,7.61-0.91,11.05,0.03c3.44,0.94,6.37,2.73,8.81,5.38
				c2.43,2.65,4.13,6.01,5.07,10.09c0.27,1.16,0.48,2.39,0.63,3.69l-28.14,6.56c0.78,2.47,2.04,4.21,3.78,5.21
				c1.74,1,3.65,1.26,5.74,0.77c3.1-0.72,4.95-2.53,5.55-5.43l13.23-3.09C483,121.01,482.33,123.69,481.06,126.24z"/>
		</g>
	</g>
	<polygon class="st2" points="427.32,103.48 421.53,120 433.11,120 	"/>
</g>
<g class="st1">
	<g class="st2">
		<path class="st5" d="M488.62,209.52c0.02,0.05,0.12,0.03,0.25,0.01c3.49-0.61,12.14-3.45,13.14-3.67v-3.59
			C493,206.8,488.49,209.22,488.62,209.52z"/>
		<path class="st5" d="M502.01,206.06c-0.64,3.19-0.66,4.11-0.53,4.2c0.04,0.03,0.07,0,0.23-0.1c0.25-0.16,0.29-0.2,0.29-0.21v-3.98
			C502,206,502.03,206.02,502.01,206.06z"/>
		<path class="st5" d="M502.19,205.84c0,0-0.03,0-0.08,0.01v0.12c0-0.01,0.01-0.02,0.01-0.03
			C502.16,205.87,502.2,205.84,502.19,205.84z"/>
		<path class="st5" d="M491.06,229.45c0.04,0.09,0.23,0.05,0.45,0.02c2.49-0.44,6.49-1.53,10.49-2.69v-3.67
			C495,226.98,490.91,229.09,491.06,229.45z"/>
		<path class="st5" d="M493.41,263.6c-0.08,0.24,2.59,1.57,8.59,4v-2.5c-3-0.64-6.44-1.35-8.35-1.53
			C493.52,263.55,493.42,263.54,493.41,263.6z"/>
		<path class="st5" d="M491.7,245.22c-0.22,0-0.47,0.01-0.49,0.11c-0.08,0.36,3.79,1.61,10.79,3.75v-3.31
			C498,245.43,494.13,245.17,491.7,245.22z"/>
		<path class="st6" d="M514.23,240.04c-0.03-0.02,0,0-0.67-0.27c-0.31-0.12-0.42-0.14-0.49-0.08c-0.2,0.19,0.18,1.76,2.29,7.01
			c0.05,0.08,0.09,0.14,0.13,0.18c0.1,0.12,0.11,0.15,0.11,0.16c-0.02,0.1-6.6-0.7-13.6-1.27v3.31c6,1.71,14.04,3.99,24.57,6.85
			c0.34,0.12,0.47,0.08,0.51,0.03c0.43-0.61-7.59-7.35-6.79-7.46c0.48-0.06,0.01,0,0.49-0.06c3.33-0.76,6.83-1.29,10.52-1.66
			c0.4-0.04,0.79-0.08,1.19-0.11c0.41-0.08,0.47-0.17,0.47-0.23C533.06,245.39,515.06,240.69,514.23,240.04z"/>
		<path class="st6" d="M514.67,223.02c0,0.01-0.03,0.05-0.1,0.19c-0.03,0.05-0.05,0.12-0.08,0.2c-1.12,5.56-1.2,7.18-0.97,7.33
			c0.08,0.05,0.19,0.01,0.47-0.17c0.61-0.39,0.58-0.36,0.61-0.39c0.7-0.8,17.52-8.93,17.22-9.94c-0.02-0.05-0.09-0.13-0.5-0.13
			c-0.39,0.04-0.79,0.09-1.19,0.13c-3.69,0.36-7.21,0.51-10.63,0.42c-0.48,0.03,0,0-0.48,0.03c-0.8,0.05,5.86-8.13,5.33-8.65
			c-0.04-0.04-0.21-0.06-0.52,0.12c-9.2,4.54-16.83,8.19-21.83,10.95v3.67C508,224.94,514.63,222.93,514.67,223.02z"/>
		<path class="st6" d="M502.14,205.84c0,0-0.06,0.03-0.1,0.11c0,0.01-0.04,0.02-0.04,0.03v3.98c0-0.01,0.06-0.01,0.07-0.01
			c0.4-0.46,10.06-5.11,9.89-5.69c-0.01-0.03-0.04-0.08-0.28-0.08c-0.23,0.02-0.45,0.05-0.67,0.07c-2.11,0.21-4.13,0.29-6.08,0.24
			c-0.28,0.02,0,0-0.28,0.02c-0.46,0.03,3.36-4.66,3.05-4.95c-0.02-0.02-0.14-0.03-0.32,0.07c-1.93,0.95-3.38,1.83-5.38,2.65v3.59
			C502,205.84,502.14,205.83,502.14,205.84z"/>
		<path class="st6" d="M512.86,271.98c0.19,0.09,0.28,0.08,0.3,0.05c0.28-0.32-3.86-4.69-3.4-4.7c0.28-0.01,0.01,0,0.28-0.01
			c1.94-0.21,3.97-0.28,6.09-0.24c0.23,0,0.46,0.01,0.68,0.02c0.24-0.02,0.28-0.07,0.28-0.1c0.13-0.59-9.83-4.47-10.26-4.89
			c-0.02-0.02,0,0-0.37-0.2c-0.17-0.09-0.23-0.11-0.27-0.08c-0.13,0.1-0.01,1.01,0.87,4.14c0.02,0.05,0.04,0.08,0.06,0.11
			c0.05,0.07,0.03,0.1,0.03,0.1c-0.01,0.04-2.17-0.49-5.17-1.09v2.5C505,268.79,508.54,270.25,512.86,271.98z"/>
	</g>
	<g class="st2">
		<polygon class="st5" points="430.22,215.81 424.42,215.81 405.9,264.24 415.72,264.24 418.44,256.48 436.19,256.48 438.91,264.24 
			448.74,264.24 446.65,258.79 441.11,244.31 		"/>
		<path class="st5" d="M444.13,221.31l4.55-2.06c1.51-0.69,2.94-1.56,4.23-2.61c0,0,0.01-0.01,0.01-0.01l4.64-4.66
			c0.05-0.05,0.29-0.23,0.35-0.19l8.52,4.95c0.01,0,0.02,0.01,0.03,0.01c1.29,0.45,2.71,0.76,4.07,0.84
			c0.91,0.05,0.07-1.38-0.17-1.6l-14.84-13c-0.07-0.06-0.18-0.04-0.22,0.03l-11.36,18.07C443.86,221.22,444,221.37,444.13,221.31z"
			/>
		<path class="st5" d="M464.27,254.71c-2.09,0.49-4,0.23-5.74-0.77c-1.74-1-3-2.74-3.78-5.21l28.14-6.56
			c-0.15-1.29-0.36-2.52-0.63-3.69c-0.95-4.07-2.64-7.43-5.07-10.09c-2.43-2.65-5.37-4.45-8.81-5.38
			c-3.44-0.94-7.12-0.95-11.05-0.03c-4.02,0.94-7.39,2.62-10.09,5.04c-2.71,2.42-4.55,5.41-5.54,8.96c-0.62,2.22-0.85,4.56-0.7,7.03
			l0.12,0.3l5.54,14.48c0.08,0.09,0.15,0.19,0.23,0.28c2.48,2.74,5.47,4.6,8.97,5.57c3.5,0.97,7.23,1,11.21,0.07
			c3.29-0.77,6.13-2.07,8.52-3.9c2.38-1.83,4.21-4.02,5.48-6.57c1.27-2.54,1.94-5.23,1.99-8.05l-13.23,3.09
			C469.22,252.17,467.37,253.98,464.27,254.71z M454.66,236.02c1.15-1.54,2.76-2.56,4.85-3.05c2.18-0.51,4.15-0.3,5.89,0.62
			c1.75,0.92,2.87,2.45,3.37,4.58l-15.56,3.63C453.03,239.49,453.51,237.56,454.66,236.02z"/>
		<path class="st6" d="M465.4,233.59c-1.75-0.92-3.71-1.13-5.89-0.62c-2.08,0.49-3.7,1.5-4.85,3.05c-1.15,1.54-1.63,3.47-1.45,5.78
			l15.56-3.63C468.27,236.04,467.15,234.51,465.4,233.59z"/>
		<path class="st6" d="M501.72,210.16c-0.16,0.1-0.2,0.13-0.24,0.1c-0.13-0.09-0.12-1.01,0.52-4.2c0.01-0.04,0-0.06,0-0.09v-0.12
			c-1,0.22-9.62,3.06-13.11,3.67c-0.13,0.02-0.28,0.04-0.3-0.01c-0.13-0.29,4.41-2.71,13.41-7.25v-9.13c0-1.02-0.81-1.8-1.77-1.66
			l-101.74,15.68c-0.78,0.12-1.49,0.83-1.49,1.66v61.97c0,0.83,0.74,1.54,1.52,1.66l101.64,12.98c0.96,0.14,1.84-0.64,1.84-1.66
			v-16.17c-6-2.42-8.67-3.76-8.59-4c0.02-0.05,0.11-0.04,0.24-0.03c1.91,0.18,5.35,0.89,8.35,1.53v-16.02
			c-7-2.14-10.84-3.4-10.76-3.75c0.02-0.1,0.21-0.1,0.44-0.11c2.43-0.05,6.32,0.21,10.32,0.55v-19c-4,1.16-7.98,2.25-10.46,2.69
			c-0.22,0.04-0.46,0.08-0.5-0.02c-0.15-0.35,3.96-2.47,10.96-6.34v-13.16C502,209.96,501.97,210,501.72,210.16z M443.94,221.1
			l11.36-18.07c0.05-0.08,0.16-0.09,0.22-0.03l14.84,13c0.25,0.22,1.09,1.65,0.17,1.6c-1.37-0.08-2.78-0.39-4.07-0.84
			c-0.01,0-0.02-0.01-0.03-0.01l-8.52-4.95c-0.06-0.03-0.3,0.14-0.35,0.19l-4.64,4.66c0,0-0.01,0.01-0.01,0.01
			c-1.29,1.04-2.72,1.92-4.23,2.61l-4.55,2.06C444,221.37,443.86,221.22,443.94,221.1z M481.06,254.24
			c-1.27,2.55-3.1,4.74-5.48,6.57c-2.38,1.83-5.22,3.13-8.52,3.9c-3.98,0.93-7.71,0.91-11.21-0.07c-3.5-0.97-6.49-2.83-8.97-5.57
			c-0.08-0.09-0.15-0.19-0.23-0.28l2.09,5.46h-9.83l-2.72-7.76h-17.75l-2.72,7.76h-9.83l18.52-48.44h5.8l10.9,28.5l-0.12-0.3
			c-0.15-2.47,0.08-4.82,0.7-7.03c0.99-3.55,2.83-6.54,5.54-8.96c2.71-2.42,6.07-4.1,10.09-5.04c3.93-0.92,7.61-0.91,11.05,0.03
			c3.44,0.94,6.37,2.73,8.81,5.38c2.43,2.65,4.13,6.01,5.07,10.09c0.27,1.16,0.48,2.39,0.63,3.69l-28.14,6.56
			c0.78,2.47,2.04,4.21,3.78,5.21c1.74,1,3.65,1.26,5.74,0.77c3.1-0.72,4.95-2.53,5.55-5.43l13.23-3.09
			C483,249.01,482.33,251.69,481.06,254.24z"/>
	</g>
	<g>
		<path class="st7" d="M117,218c-2.93,1.62-5.16,3.96-6.69,7.03c-1.54,3.07-2.31,6.78-2.31,11.12v15.12c0,4.35,0.77,8.05,2.31,11.12
			c1.54,3.07,3.77,5.41,6.69,7.01c0.03,0.02,0.06,0.03,0.09,0.05c2.82,1.55,5.98,2.36,9.18,2.36l1.3,0.02
			c3.4-0.1,6.41-0.77,9.08-2.26c2.67-1.49,4.87-3.66,6.62-6.5c1.75-2.84,2.97-6.27,3.66-10.29h-10.56c-0.37,1.84-0.97,3.41-1.79,4.7
			c-0.82,1.29-1.82,2.27-3.01,2.94c-1.19,0.67-2.53,1-4.02,1c-1.91,0-3.53-0.4-4.87-1.19c-1.34-0.8-2.36-1.95-3.07-3.47
			c-0.71-1.52-1.06-3.35-1.06-5.5"/>
		<g class="st2">
			<path class="st8" d="M180.5,252.06c0,1.92-3.19,3.29-3.94,4.76c-0.75,1.47-1.81,2.6-3.19,3.4c-1.38,0.8-2.97,1.2-4.79,1.2
				s-3.42-0.4-4.79-1.2c-1.38-0.8-2.44-1.93-3.19-3.4c-0.75-1.47-3.08-3.09-3.08-5.01l0.8-33.81c-2.96,1.68-5.25,4.06-6.88,7.14
				c-1.62,3.08-2.43,6.64-2.43,10.69v15.64c0,4.05,0.81,7.61,2.43,10.69c1.62,3.08,3.91,5.46,6.88,7.14
				c2.96,1.68,6.39,2.53,10.27,2.53c3.88,0,7.31-0.84,10.27-2.53c2.96-1.68,5.25-4.06,6.88-7.14c1.62-3.08,2.43-6.64,2.43-10.69
				v-15.64c0-4.05-0.81-7.61-2.43-10.69c-1.62-3.08-3.92-5.46-6.88-7.14L180.5,252.06z"/>
		</g>
		<g class="st2">
			<path class="st6" d="M240.13,217.04v53.04h-7.1l1.14-41.04l-2.3-0.39l-11.13,35.26h-7.5l-11.13-34.27l-2.29,0.4l1.15,40.04h-7.1
				v-53.04h11.7l10.28,33.92l1.12,3.71l1.13-3.71l10.31-33.93H240.13 M241.31,215.86h-13.75l-10.57,34.76l-10.54-34.76H192.7v55.39
				h9.48L201,230l11.4,35.08h9.22L233,229l-1.17,42.25h9.49V215.86L241.31,215.86z"/>
		</g>
		<g class="st2">
			<path class="st6" d="M284.78,217.04v34.18c0,4.13-0.76,7.7-2.25,10.6c-1.47,2.85-3.63,5.06-6.44,6.55
				c-2.85,1.51-6.35,2.28-10.4,2.28c-4.05,0-7.55-0.77-10.38-2.28c-2.79-1.49-4.95-3.69-6.4-6.55c-1.48-2.9-2.23-6.47-2.23-10.61
				v-34.18h8.09v34.44c0,3.48,0.97,6.24,2.88,8.21c1.92,1.98,4.63,2.98,8.04,2.98c3.44,0,6.16-1,8.1-2.98
				c1.93-1.97,2.91-4.73,2.91-8.21v-34.44H284.78 M285.95,215.86h-10.44v35.62c0,3.17-0.86,5.64-2.57,7.39
				c-1.71,1.75-4.13,2.63-7.26,2.63c-3.1,0-5.5-0.88-7.2-2.63c-1.7-1.75-2.55-4.22-2.55-7.39v-35.62H245.5v35.35
				c0,4.34,0.79,8.06,2.36,11.14c1.57,3.09,3.87,5.44,6.89,7.05c3.02,1.61,6.67,2.42,10.93,2.42c4.27,0,7.92-0.81,10.95-2.42
				c3.03-1.61,5.35-3.96,6.93-7.05c1.59-3.08,2.38-6.8,2.38-11.14V215.86L285.95,215.86z"/>
		</g>
		<g class="st2">
			<path class="st6" d="M331.4,217.04v53h-10.93L300.2,228.8l-2.19,0.82l0.93,3.47v36.94h-7.63v-53h10.85l19.37,39.89l2.23-0.51
				v-39.38H331.4 M332.57,215.86h-9.98v40.55l-19.69-40.55h-12.76v55.35h9.98v-38.27l-0.97-3.62l20.59,41.89h12.84V215.86
				L332.57,215.86z"/>
		</g>
		<g class="st2">
			<path class="st6" d="M346.1,217.04v53.04h-8.47v-53.04H346.1 M347.28,215.86h-10.82v55.39h10.82V215.86L347.28,215.86z"/>
		</g>
		<g class="st2">
			<path class="st6" d="M390.52,217.04l-15.11,21.01l-0.44,0.62l0.38,0.66l17.75,30.75h-9.66l-12.87-22.44l-0.91-1.58l-1.07,1.48
				l-7.94,11.04l-0.22,0.31v0.38v10.82h-8.09v-53.04h8.09v26.26v3.93l2.16-3.28l17.71-26.91H390.52 M392.81,215.86h-13.14
				l-18.06,27.44v-27.44h-10.44v55.39h10.44v-12l7.94-11.04l13.21,23.03h12.38l-18.77-32.51L392.81,215.86L392.81,215.86z"/>
		</g>
	</g>
	<g>
		<path class="st9" d="M134.29,249.53c-0.84,1.3-1.87,2.28-3.09,2.95c-1.22,0.67-2.59,1.01-4.11,1.01c-1.95,0-3.62-0.4-4.99-1.2
			c-1.37-0.8-2.42-1.96-3.14-3.49c-0.72-1.52-1.08-3.37-1.08-5.52v-15.2c0-2.16,0.36-4.01,1.08-5.54c0.72-1.54,1.77-2.7,3.14-3.5
			c1.37-0.8,3.03-1.2,4.99-1.2c1.5,0,2.85,0.34,4.06,1.03c1.21,0.69,2.23,1.68,3.09,2.97c0.85,1.29,1.48,2.86,1.89,4.69h10.82
			c-0.69-4.04-1.92-7.49-3.71-10.34c-1.79-2.86-4.06-5.03-6.8-6.53c-2.74-1.5-5.85-2.25-9.33-2.25c-4.22,0-7.82,0.81-10.82,2.44
			c-3,1.63-5.28,3.98-6.86,7.07c-1.57,3.09-2.36,6.81-2.36,11.18v15.2c0,4.37,0.79,8.1,2.36,11.18c1.57,3.09,3.86,5.44,6.86,7.05
			c0.03,0.02,0.06,0.03,0.09,0.05c2.89,1.56,6.12,2.37,9.41,2.37l1.34,0.02c3.48-0.1,6.57-0.77,9.3-2.27
			c2.73-1.5,4.99-3.68,6.78-6.53c1.79-2.86,3.04-6.3,3.75-10.34h-10.82C135.74,246.66,135.13,248.24,134.29,249.53z"/>
		<g class="st2">
			<path class="st6" d="M186.65,217.1c-1.68-3.09-4.04-5.47-7.1-7.16c-3.06-1.69-6.6-2.53-10.61-2.53c-4.01,0-7.55,0.84-10.61,2.53
				c-3.06,1.69-5.43,4.08-7.1,7.16c-1.68,3.09-2.51,6.66-2.51,10.72v15.7c0,4.06,0.84,7.64,2.51,10.72c1.68,3.08,4.04,5.47,7.1,7.16
				c3.06,1.69,6.6,2.53,10.61,2.53c4.01,0,7.55-0.84,10.61-2.53c3.06-1.69,5.43-4.08,7.1-7.16c1.68-3.09,2.51-6.66,2.51-10.72v-15.7
				C189.16,223.76,188.32,220.18,186.65,217.1z M178.34,243.78c0,1.93-0.39,3.63-1.16,5.11c-0.78,1.47-1.87,2.61-3.3,3.41
				c-1.42,0.8-3.07,1.2-4.95,1.2c-1.88,0-3.53-0.4-4.95-1.2c-1.42-0.8-2.52-1.94-3.3-3.41c-0.77-1.47-1.16-3.17-1.16-5.11v-16.23
				c0-1.93,0.39-3.63,1.16-5.1c0.78-1.47,1.87-2.61,3.3-3.41c1.42-0.8,3.07-1.2,4.95-1.2c1.88,0,3.53,0.4,4.95,1.2
				c1.42,0.8,2.52,1.94,3.3,3.41c0.77,1.47,1.16,3.17,1.16,5.1V243.78z"/>
		</g>
		<polygon class="st9" points="227.56,207.97 217.01,245.31 206.46,207.97 192.7,207.97 192.7,263.36 202.19,263.36 202.19,224.76 
			212.4,257.19 221.62,257.19 231.83,224.03 231.83,263.36 241.31,263.36 241.31,207.97 		"/>
		<path class="st9" d="M275.52,207.97v35.62c0,3.17-0.86,5.64-2.57,7.39c-1.71,1.75-4.13,2.63-7.26,2.63c-3.1,0-5.5-0.88-7.2-2.63
			c-1.7-1.75-2.55-4.22-2.55-7.39v-35.62H245.5v35.35c0,4.34,0.79,8.06,2.36,11.14c1.57,3.09,3.87,5.44,6.89,7.05
			c3.02,1.61,6.67,2.42,10.93,2.42c4.27,0,7.92-0.81,10.95-2.42c3.03-1.61,5.35-3.96,6.93-7.05c1.59-3.08,2.38-6.8,2.38-11.14
			v-35.35H275.52z"/>
		<polygon class="st9" points="322.59,207.97 322.59,248.53 302.9,207.97 290.14,207.97 290.14,263.32 300.12,263.32 300.12,223.4 
			319.73,263.32 332.57,263.32 332.57,207.97 		"/>
		<rect x="336.46" y="207.97" class="st9" width="10.82" height="55.39"/>
		<polygon class="st9" points="382.75,263.36 395.13,263.36 376.36,230.85 392.81,207.97 379.67,207.97 361.61,235.41 
			361.61,207.97 351.17,207.97 351.17,263.36 361.61,263.36 361.61,251.37 369.55,240.33 		"/>
	</g>
	<polygon class="st9" points="427.32,231.16 421.53,247.69 433.11,247.69 	"/>
</g>
<g>
	<g>
		<path class="st5" d="M488.62,328.52c0.02,0.05,0.12,0.03,0.25,0.01c3.49-0.61,12.14-3.45,13.14-3.67v-3.59
			C493,325.8,488.49,328.22,488.62,328.52z"/>
		<path class="st5" d="M502.01,325.06c-0.64,3.19-0.66,4.11-0.53,4.2c0.04,0.03,0.07,0,0.23-0.1c0.25-0.16,0.29-0.2,0.29-0.21v-3.98
			C502,325,502.03,325.02,502.01,325.06z"/>
		<path class="st5" d="M502.19,324.84c0,0-0.03,0-0.08,0.01v0.12c0-0.01,0.01-0.02,0.01-0.03
			C502.16,324.87,502.2,324.84,502.19,324.84z"/>
		<path class="st5" d="M491.06,348.45c0.04,0.09,0.23,0.05,0.45,0.02c2.49-0.44,6.49-1.53,10.49-2.69v-3.67
			C495,345.98,490.91,348.09,491.06,348.45z"/>
		<path class="st5" d="M493.41,382.6c-0.08,0.24,2.59,1.57,8.59,4v-2.5c-3-0.64-6.44-1.35-8.35-1.53
			C493.52,382.55,493.42,382.54,493.41,382.6z"/>
		<path class="st5" d="M491.7,364.22c-0.22,0-0.47,0.01-0.49,0.11c-0.08,0.36,3.79,1.61,10.79,3.75v-3.31
			C498,364.43,494.13,364.17,491.7,364.22z"/>
		<path class="st10" d="M514.23,359.04c-0.03-0.02,0,0-0.67-0.27c-0.31-0.12-0.42-0.14-0.49-0.08c-0.2,0.19,0.18,1.76,2.29,7.01
			c0.05,0.08,0.09,0.14,0.13,0.18c0.1,0.12,0.11,0.15,0.11,0.16c-0.02,0.1-6.6-0.7-13.6-1.27v3.31c6,1.71,14.04,3.99,24.57,6.85
			c0.34,0.12,0.47,0.08,0.51,0.03c0.43-0.61-7.59-7.35-6.79-7.46c0.48-0.06,0.01,0,0.49-0.06c3.33-0.76,6.83-1.3,10.52-1.66
			c0.4-0.04,0.79-0.08,1.19-0.11c0.41-0.08,0.47-0.17,0.47-0.23C533.06,364.39,515.06,359.69,514.23,359.04z"/>
		<path class="st10" d="M514.67,342.02c0,0.01-0.03,0.05-0.1,0.19c-0.03,0.05-0.05,0.12-0.08,0.2c-1.12,5.56-1.2,7.18-0.97,7.33
			c0.08,0.05,0.19,0.01,0.47-0.17c0.61-0.39,0.58-0.36,0.61-0.39c0.7-0.8,17.52-8.93,17.22-9.94c-0.02-0.05-0.09-0.13-0.5-0.13
			c-0.39,0.04-0.79,0.09-1.19,0.13c-3.69,0.36-7.21,0.51-10.63,0.42c-0.48,0.03,0,0-0.48,0.03c-0.8,0.05,5.86-8.13,5.33-8.65
			c-0.04-0.04-0.21-0.06-0.52,0.12c-9.2,4.54-16.83,8.19-21.83,10.95v3.67C508,343.94,514.63,341.93,514.67,342.02z"/>
		<path class="st11" d="M502.14,324.84c0,0-0.06,0.03-0.1,0.11c0,0.01-0.04,0.02-0.04,0.03v3.98c0-0.01,0.06-0.01,0.07-0.01
			c0.4-0.46,10.06-5.11,9.89-5.69c-0.01-0.03-0.04-0.08-0.28-0.08c-0.23,0.02-0.45,0.05-0.67,0.07c-2.11,0.21-4.13,0.29-6.08,0.24
			c-0.28,0.02,0,0-0.28,0.02c-0.46,0.03,3.36-4.66,3.05-4.95c-0.02-0.02-0.14-0.03-0.32,0.07c-1.93,0.95-3.38,1.83-5.38,2.65v3.59
			C502,324.84,502.14,324.83,502.14,324.84z"/>
		<path class="st11" d="M512.86,390.98c0.19,0.09,0.28,0.08,0.3,0.05c0.28-0.32-3.86-4.69-3.4-4.7c0.28-0.01,0.01,0,0.28-0.01
			c1.94-0.21,3.97-0.28,6.09-0.24c0.23,0,0.46,0.01,0.68,0.02c0.24-0.02,0.28-0.07,0.28-0.1c0.13-0.59-9.83-4.47-10.26-4.89
			c-0.02-0.02,0,0-0.37-0.2c-0.17-0.09-0.23-0.11-0.27-0.08c-0.13,0.1-0.01,1.01,0.87,4.14c0.02,0.05,0.04,0.08,0.06,0.11
			c0.05,0.07,0.03,0.1,0.03,0.1c-0.01,0.04-2.17-0.49-5.17-1.09v2.5C505,387.79,508.54,389.25,512.86,390.98z"/>
	</g>
	<g>
		<polygon class="st5" points="430.22,334.81 424.42,334.81 405.9,383.24 415.72,383.24 418.44,375.48 436.19,375.48 438.91,383.24 
			448.74,383.24 446.65,377.79 441.11,363.31 		"/>
		<path class="st5" d="M444.13,340.31l4.55-2.06c1.51-0.69,2.94-1.56,4.23-2.61c0,0,0.01-0.01,0.01-0.01l4.64-4.66
			c0.05-0.05,0.29-0.23,0.35-0.19l8.52,4.95c0.01,0,0.02,0.01,0.03,0.01c1.29,0.45,2.71,0.76,4.07,0.84
			c0.91,0.05,0.07-1.38-0.17-1.6l-14.84-13c-0.07-0.06-0.18-0.04-0.22,0.03l-11.36,18.07C443.86,340.22,444,340.37,444.13,340.31z"
			/>
		<path class="st5" d="M464.27,373.71c-2.09,0.49-4,0.23-5.74-0.77c-1.74-1-3-2.74-3.78-5.21l28.14-6.56
			c-0.15-1.29-0.36-2.52-0.63-3.69c-0.95-4.07-2.64-7.43-5.07-10.09c-2.43-2.65-5.37-4.45-8.81-5.38
			c-3.44-0.94-7.12-0.95-11.05-0.03c-4.02,0.94-7.39,2.62-10.09,5.04c-2.71,2.42-4.55,5.41-5.54,8.96c-0.62,2.22-0.85,4.56-0.7,7.03
			l0.12,0.3l5.54,14.48c0.08,0.09,0.15,0.19,0.23,0.28c2.48,2.74,5.47,4.6,8.97,5.57c3.5,0.97,7.23,1,11.21,0.07
			c3.29-0.77,6.13-2.07,8.52-3.9c2.38-1.83,4.21-4.02,5.48-6.57c1.27-2.54,1.94-5.23,1.99-8.05l-13.23,3.09
			C469.22,371.17,467.37,372.98,464.27,373.71z M454.66,355.02c1.15-1.54,2.76-2.56,4.85-3.05c2.18-0.51,4.15-0.3,5.89,0.62
			c1.75,0.92,2.87,2.45,3.37,4.58l-15.56,3.63C453.03,358.49,453.51,356.56,454.66,355.02z"/>
		<path class="st10" d="M465.4,352.59c-1.75-0.92-3.71-1.13-5.89-0.62c-2.08,0.49-3.7,1.5-4.85,3.05c-1.15,1.54-1.63,3.47-1.45,5.78
			l15.56-3.63C468.27,355.04,467.15,353.51,465.4,352.59z"/>
		<path class="st10" d="M501.72,329.16c-0.16,0.1-0.2,0.13-0.24,0.1c-0.13-0.09-0.12-1.01,0.52-4.2c0.01-0.04,0-0.06,0-0.09v-0.12
			c-1,0.22-9.62,3.06-13.11,3.67c-0.13,0.02-0.28,0.04-0.3-0.01c-0.13-0.29,4.41-2.71,13.41-7.25v-9.13c0-1.02-0.81-1.8-1.77-1.66
			l-101.74,15.68c-0.78,0.12-1.49,0.83-1.49,1.66v61.97c0,0.83,0.74,1.54,1.52,1.66l101.64,12.98c0.96,0.14,1.84-0.64,1.84-1.66
			v-16.17c-6-2.42-8.67-3.76-8.59-4c0.02-0.05,0.11-0.04,0.24-0.03c1.91,0.18,5.35,0.89,8.35,1.53v-16.02
			c-7-2.14-10.84-3.4-10.76-3.75c0.02-0.1,0.21-0.1,0.44-0.11c2.43-0.05,6.32,0.21,10.32,0.55v-19c-4,1.16-7.98,2.25-10.46,2.69
			c-0.22,0.04-0.46,0.08-0.5-0.02c-0.15-0.35,3.96-2.47,10.96-6.34v-13.16C502,328.96,501.97,329,501.72,329.16z M443.94,340.1
			l11.36-18.07c0.05-0.08,0.16-0.09,0.22-0.03l14.84,13c0.25,0.22,1.09,1.65,0.17,1.6c-1.37-0.08-2.78-0.39-4.07-0.84
			c-0.01,0-0.02-0.01-0.03-0.01l-8.52-4.95c-0.06-0.03-0.3,0.14-0.35,0.19l-4.64,4.66c0,0-0.01,0.01-0.01,0.01
			c-1.29,1.04-2.72,1.92-4.23,2.61l-4.55,2.06C444,340.37,443.86,340.22,443.94,340.1z M481.06,373.24
			c-1.27,2.55-3.1,4.74-5.48,6.57c-2.38,1.83-5.22,3.13-8.52,3.9c-3.98,0.93-7.71,0.91-11.21-0.07c-3.5-0.97-6.49-2.83-8.97-5.57
			c-0.08-0.09-0.15-0.19-0.23-0.28l2.09,5.46h-9.83l-2.72-7.76h-17.75l-2.72,7.76h-9.83l18.52-48.44h5.8l10.9,28.5l-0.12-0.3
			c-0.15-2.47,0.08-4.82,0.7-7.03c0.99-3.55,2.83-6.54,5.54-8.96c2.71-2.42,6.07-4.1,10.09-5.04c3.93-0.92,7.61-0.91,11.05,0.03
			c3.44,0.94,6.37,2.73,8.81,5.38c2.43,2.65,4.13,6.01,5.07,10.09c0.27,1.16,0.48,2.39,0.63,3.69l-28.14,6.56
			c0.78,2.47,2.04,4.21,3.78,5.21c1.74,1,3.65,1.26,5.74,0.77c3.1-0.72,4.95-2.53,5.55-5.43l13.23-3.09
			C483,368.01,482.33,370.69,481.06,373.24z"/>
	</g>
	<g>
		<path class="st10" d="M117,337c-2.93,1.62-5.16,3.96-6.69,7.03c-1.54,3.07-2.31,6.78-2.31,11.12v15.12
			c0,4.35,0.77,8.05,2.31,11.12c1.54,3.07,3.77,5.41,6.69,7.01c0.03,0.02,0.06,0.03,0.09,0.05c2.82,1.55,5.98,2.36,9.18,2.36
			l1.3,0.02c3.4-0.1,6.41-0.77,9.08-2.26c2.67-1.49,4.87-3.66,6.62-6.5c1.75-2.84,2.97-6.27,3.66-10.29h-10.56
			c-0.37,1.84-0.97,3.41-1.79,4.7c-0.82,1.29-1.82,2.27-3.01,2.94c-1.19,0.67-2.53,1-4.02,1c-1.91,0-3.53-0.4-4.87-1.19
			c-1.34-0.8-2.36-1.95-3.07-3.47c-0.71-1.52-2.62-3.63-2.62-5.78"/>
		<g>
			<path class="st10" d="M180.5,371.06c0,1.92-3.19,3.29-3.94,4.76c-0.75,1.47-1.81,2.6-3.19,3.4c-1.38,0.8-2.97,1.2-4.79,1.2
				s-3.42-0.4-4.79-1.2c-1.38-0.8-2.44-1.93-3.19-3.4c-0.75-1.47-3.08-3.09-3.08-5.01l0.8-33.81c-2.96,1.68-5.25,4.06-6.88,7.14
				c-1.62,3.08-2.43,6.64-2.43,10.69v15.64c0,4.05,0.81,7.61,2.43,10.69c1.62,3.08,3.91,5.46,6.88,7.14
				c2.96,1.68,6.39,2.53,10.27,2.53c3.88,0,7.31-0.84,10.27-2.53c2.96-1.68,5.25-4.06,6.88-7.14c1.62-3.08,2.43-6.64,2.43-10.69
				v-15.64c0-4.05-0.81-7.61-2.43-10.69c-1.62-3.08-3.92-5.46-6.88-7.14L180.5,371.06z"/>
		</g>
		<polygon class="st10" points="227.56,334.86 216.99,369.62 206.46,334.86 192.7,334.86 192.7,390.25 202.19,390.25 201,349 
			212.4,384.08 221.62,384.08 233,348 231.83,390.25 241.31,390.25 241.31,334.86 		"/>
		<path class="st10" d="M275.52,334.86v35.62c0,3.17-0.86,5.64-2.57,7.39c-1.71,1.75-4.13,2.63-7.26,2.63c-3.1,0-5.5-0.88-7.2-2.63
			c-1.7-1.75-2.55-4.22-2.55-7.39v-35.62H245.5v35.35c0,4.34,0.79,8.06,2.36,11.14c1.57,3.09,3.87,5.44,6.89,7.05
			c3.02,1.61,6.67,2.42,10.93,2.42c4.27,0,7.92-0.81,10.95-2.42c3.03-1.61,5.35-3.96,6.93-7.05c1.59-3.08,2.38-6.8,2.38-11.14
			v-35.35H275.52z"/>
		<polygon class="st10" points="322.59,334.86 322.59,375.42 302.9,334.86 290.14,334.86 290.14,390.21 300.12,390.21 
			300.12,351.94 299.15,348.32 319.73,390.21 332.57,390.21 332.57,334.86 		"/>
		<rect x="336.46" y="334.86" class="st10" width="10.82" height="55.39"/>
		<polygon class="st10" points="382.75,390.25 395.13,390.25 376.36,357.74 392.81,334.86 379.67,334.86 361.61,362.3 
			361.61,334.86 351.17,334.86 351.17,390.25 361.61,390.25 361.61,378.26 369.55,367.22 		"/>
	</g>
	<polygon class="st10" points="427.32,350.16 421.53,366.69 433.11,366.69 	"/>
	<g>
		<path class="st11" d="M134.29,368.53c-0.84,1.3-1.87,2.28-3.09,2.95c-1.22,0.67-2.59,1.01-4.11,1.01c-1.95,0-3.62-0.4-4.99-1.2
			c-1.37-0.8-2.42-1.96-3.14-3.49c-0.72-1.52-1.08-3.37-1.08-5.52v-15.2c0-2.16,0.36-4.01,1.08-5.54c0.72-1.54,1.77-2.7,3.14-3.5
			c1.37-0.8,3.03-1.2,4.99-1.2c1.5,0,2.85,0.34,4.06,1.03c1.21,0.69,2.23,1.68,3.09,2.97c0.85,1.29,1.48,2.86,1.89,4.69h10.82
			c-0.69-4.04-1.92-7.49-3.71-10.34c-1.79-2.86-4.06-5.03-6.8-6.53c-2.74-1.5-5.85-2.25-9.33-2.25c-4.22,0-7.82,0.81-10.82,2.44
			c-3,1.63-5.28,3.98-6.86,7.07c-1.57,3.09-2.36,6.81-2.36,11.18v15.2c0,4.37,0.79,8.1,2.36,11.18c1.57,3.09,3.86,5.44,6.86,7.05
			c0.03,0.02,0.06,0.03,0.09,0.05c2.89,1.56,6.12,2.37,9.41,2.37l1.34,0.02c3.48-0.1,6.57-0.77,9.3-2.27
			c2.73-1.5,4.99-3.68,6.78-6.53c1.79-2.86,3.04-6.3,3.75-10.34h-10.82C135.74,365.67,135.13,367.24,134.29,368.53z"/>
		<g>
			<path class="st11" d="M186.65,336.1c-1.68-3.09-4.04-5.47-7.1-7.16c-3.06-1.69-6.6-2.53-10.61-2.53c-4.01,0-7.55,0.84-10.61,2.53
				c-3.06,1.69-5.43,4.08-7.1,7.16c-1.68,3.09-2.51,6.66-2.51,10.72v15.7c0,4.06,0.84,7.64,2.51,10.72c1.68,3.08,4.04,5.47,7.1,7.16
				c3.06,1.69,6.6,2.53,10.61,2.53c4.01,0,7.55-0.84,10.61-2.53c3.06-1.69,5.43-4.08,7.1-7.16c1.68-3.09,2.51-6.66,2.51-10.72v-15.7
				C189.16,342.76,188.32,339.18,186.65,336.1z M178.34,362.78c0,1.93-0.39,3.63-1.16,5.11c-0.78,1.47-1.87,2.61-3.3,3.41
				c-1.42,0.8-3.07,1.2-4.95,1.2c-1.88,0-3.53-0.4-4.95-1.2c-1.42-0.8-2.52-1.94-3.3-3.41c-0.77-1.47-1.16-3.17-1.16-5.11v-16.23
				c0-1.93,0.39-3.63,1.16-5.1c0.78-1.47,1.87-2.61,3.3-3.41c1.42-0.8,3.07-1.2,4.95-1.2c1.88,0,3.53,0.4,4.95,1.2
				c1.42,0.8,2.52,1.94,3.3,3.41c0.77,1.47,1.16,3.17,1.16,5.1V362.78z"/>
		</g>
		<polygon class="st11" points="227.56,326.97 217.01,364.31 206.46,326.97 192.7,326.97 192.7,382.36 202.19,382.36 202.19,343.76 
			212.4,376.19 221.62,376.19 231.83,343.03 231.83,382.36 241.31,382.36 241.31,326.97 		"/>
		<path class="st11" d="M275.52,326.97v35.62c0,3.17-0.86,5.64-2.57,7.39c-1.71,1.75-4.13,2.63-7.26,2.63c-3.1,0-5.5-0.88-7.2-2.63
			c-1.7-1.75-2.55-4.22-2.55-7.39v-35.62H245.5v35.35c0,4.34,0.79,8.06,2.36,11.14c1.57,3.09,3.87,5.44,6.89,7.05
			c3.02,1.61,6.67,2.42,10.93,2.42c4.27,0,7.92-0.81,10.95-2.42c3.03-1.61,5.35-3.96,6.93-7.05c1.59-3.08,2.38-6.8,2.38-11.14
			v-35.35H275.52z"/>
		<polygon class="st11" points="322.59,326.97 322.59,367.53 302.9,326.97 290.14,326.97 290.14,382.32 300.12,382.32 300.12,342.4 
			319.73,382.32 332.57,382.32 332.57,326.97 		"/>
		<rect x="336.46" y="326.97" class="st11" width="10.82" height="55.39"/>
		<polygon class="st11" points="382.75,382.36 395.13,382.36 376.36,349.85 392.81,326.97 379.67,326.97 361.61,354.41 
			361.61,326.97 351.17,326.97 351.17,382.36 361.61,382.36 361.61,370.37 369.55,359.33 		"/>
	</g>
</g>
</svg>
